<?xml version="1.0" encoding="UTF-8"?>
<svg id="a" data-name="Ebene 2" xmlns="http://www.w3.org/2000/svg" viewBox="0 0 512 512">
  <defs>
    <style>
      .b {
        fill: #e8e8e8;
      }
    </style>
  </defs>
  <rect class="b" x="43.96" y="169" width="270.85" height="38"/>
  <rect class="b" x="220" y="79" width="94.79" height="38"/>
  <path class="b" d="M314,79.01v38c14.11,.26,25.5,11.82,25.5,25.99s-11.39,25.73-25.5,25.99v38c35.12-.26,63.5-28.81,63.5-63.99s-28.38-63.73-63.5-63.99Z"/>
  <rect class="b" x="130.15" y="305.26" width="270.85" height="38"/>
  <rect class="b" x="306.19" y="395.26" width="94.79" height="38"/>
  <path class="b" d="M400.19,433.25v-38c14.11-.26,25.5-11.82,25.5-25.99s-11.39-25.73-25.5-25.99v-38c35.12,.26,63.5,28.81,63.5,63.99s-28.38,63.73-63.5,63.99Z"/>
  <rect class="b" x="84.94" y="237" width="313.06" height="38"/>
</svg>